<svg width="45" height="45" viewBox="0 0 45 45" fill="none" xmlns="http://www.w3.org/2000/svg">
<path d="M19.5268 18.0502C17.8795 19.0848 16.9252 20.9431 17.0257 22.8817C17.1362 24.8304 18.3013 26.558 20.0491 27.4118C21.8069 28.2556 23.8862 28.0748 25.4732 26.9498C27.1205 25.9152 28.0748 24.0569 27.9743 22.1183C27.8638 20.1696 26.6987 18.442 24.9509 17.5882C23.1931 16.7444 21.1138 16.9252 19.5268 18.0502ZM33.8203 11.1797C33.298 10.6574 32.6652 10.2455 31.9721 9.97433C30.154 9.26116 26.1864 9.2913 23.625 9.32143C23.2132 9.32143 22.8315 9.33147 22.5 9.33147C22.1685 9.33147 21.7768 9.33147 21.3549 9.32143C18.7935 9.2913 14.846 9.25112 13.0279 9.97433C12.3348 10.2455 11.7121 10.6574 11.1797 11.1797C10.6473 11.702 10.2455 12.3348 9.97433 13.0279C9.26116 14.846 9.30134 18.8237 9.32143 21.385C9.32143 21.7969 9.33147 22.1786 9.33147 22.5C9.33147 22.8214 9.33147 23.2031 9.32143 23.615C9.30134 26.1763 9.26116 30.154 9.97433 31.9721C10.2455 32.6652 10.6574 33.2879 11.1797 33.8203C11.702 34.3527 12.3348 34.7545 13.0279 35.0257C14.846 35.7388 18.8136 35.7087 21.375 35.6786C21.7868 35.6786 22.1685 35.6685 22.5 35.6685C22.8315 35.6685 23.2232 35.6685 23.6451 35.6786C26.2065 35.7087 30.154 35.7489 31.9721 35.0257C32.6652 34.7545 33.2879 34.3426 33.8203 33.8203C34.3527 33.298 34.7545 32.6652 35.0257 31.9721C35.7489 30.1641 35.7087 26.2065 35.6786 23.635C35.6786 23.2132 35.6685 22.8214 35.6685 22.49C35.6685 22.1585 35.6685 21.7768 35.6786 21.3449C35.7087 18.7835 35.7489 14.8259 35.0257 13.0078C34.7545 12.3147 34.3426 11.692 33.8203 11.1596V11.1797ZM27.0804 15.6496C28.8984 16.865 30.154 18.7533 30.5859 20.8929C31.0179 23.0324 30.5658 25.2623 29.3504 27.0804C28.7478 27.9844 27.9743 28.7478 27.0804 29.3504C26.1864 29.9531 25.1719 30.365 24.1071 30.5759C21.9676 30.9978 19.7377 30.5558 17.9196 29.3404C16.1016 28.125 14.846 26.2366 14.4141 24.0971C13.9821 21.9576 14.4342 19.7277 15.6395 17.9096C16.8449 16.0915 18.7433 14.8359 20.8828 14.404C23.0223 13.9721 25.2522 14.4241 27.0703 15.6295H27.0804V15.6496ZM30.0134 15.519C29.702 15.308 29.4509 15.0067 29.3002 14.6551C29.1496 14.3036 29.1194 13.9219 29.1897 13.5402C29.26 13.1585 29.4509 12.827 29.7121 12.5558C29.9732 12.2846 30.3248 12.1038 30.6964 12.0335C31.0681 11.9632 31.4598 11.9933 31.8114 12.144C32.1629 12.2946 32.4643 12.5357 32.6752 12.8471C32.8862 13.1585 32.9967 13.5301 32.9967 13.9118C32.9967 14.1629 32.9464 14.4141 32.856 14.6451C32.7656 14.8761 32.615 15.0871 32.4442 15.2679C32.2734 15.4487 32.0525 15.5893 31.8214 15.6897C31.5904 15.7902 31.3393 15.8404 31.0882 15.8404C30.7065 15.8404 30.3348 15.7299 30.0234 15.519H30.0134ZM45 6.42857C45 2.88281 42.1172 0 38.5714 0H6.42857C2.88281 0 0 2.88281 0 6.42857V38.5714C0 42.1172 2.88281 45 6.42857 45H38.5714C42.1172 45 45 42.1172 45 38.5714V6.42857ZM35.8594 35.8594C33.981 37.7377 31.7009 38.3304 29.1295 38.4609C26.4777 38.6116 18.5223 38.6116 15.8705 38.4609C13.2991 38.3304 11.019 37.7377 9.14062 35.8594C7.26228 33.981 6.66964 31.7009 6.54911 29.1295C6.39844 26.4777 6.39844 18.5223 6.54911 15.8705C6.67969 13.2991 7.26228 11.019 9.14062 9.14062C11.019 7.26228 13.3092 6.66964 15.8705 6.54911C18.5223 6.39844 26.4777 6.39844 29.1295 6.54911C31.7009 6.67969 33.981 7.26228 35.8594 9.14062C37.7377 11.019 38.3304 13.2991 38.4509 15.8705C38.6016 18.5123 38.6016 26.4576 38.4509 29.1194C38.3203 31.6908 37.7377 33.971 35.8594 35.8493V35.8594Z" fill="white"/>
</svg>
